<?xml version="1.0" standalone="no"?>
<!DOCTYPE svg PUBLIC "-//W3C//DTD SVG 20010904//EN"
 "http://www.w3.org/TR/2001/REC-SVG-20010904/DTD/svg10.dtd">
<svg version="1.0" xmlns="http://www.w3.org/2000/svg"
 width="16.000000pt" height="16.000000pt" viewBox="0 0 16.000000 16.000000"
 preserveAspectRatio="xMidYMid meet">
<metadata>
Created by potrace 1.11, written by Peter Selinger 2001-2013
</metadata>
<g transform="translate(0.000000,16.000000) scale(0.008333,-0.008333)"
fill="#000000" stroke="none">
<path d="M784 1739 c-216 -46 -413 -193 -522 -389 -70 -124 -102 -260 -97
-410 4 -124 9 -152 41 -244 87 -251 296 -442 559 -512 127 -34 381 -20 475 26
8 4 46 23 85 41 112 54 224 152 301 267 187 278 173 674 -34 932 -199 248
-500 356 -808 289z m252 -234 c99 -29 159 -116 158 -230 0 -59 -5 -77 -29
-116 -55 -90 -162 -135 -261 -110 -166 42 -236 232 -136 372 60 84 161 116
268 84z m49 -629 c177 -33 332 -124 350 -205 18 -83 -209 -253 -372 -278 -198
-30 -401 38 -526 176 -56 62 -62 81 -42 125 34 70 128 126 282 166 104 27 215
33 308 16z"/>
</g>
</svg>
